<svg width="179" height="179" viewBox="0 0 179 179" fill="none" xmlns="http://www.w3.org/2000/svg">
<circle cx="89.5" cy="89.5" r="89.5" fill="#1E3842"/>
<path d="M96.8053 88.9278C96.2963 89.8297 95.5411 90.5349 94.5232 91.076C93.5053 91.6172 92.2576 91.8796 90.7964 91.8796H88.3173V97.9801H83.2935V79.9247H90.7964C92.2411 79.9247 93.4889 80.187 94.5068 80.6954C95.5247 81.2038 96.2963 81.909 96.8053 82.8273C97.3142 83.7293 97.5769 84.7788 97.5769 85.9595C97.5769 87.0583 97.3306 88.0422 96.8217 88.9442L96.8053 88.9278ZM92.4382 85.9431C92.4382 84.6312 91.7322 83.9752 90.3038 83.9752H88.3009V87.8946H90.3038C91.7158 87.8946 92.4382 87.2387 92.4382 85.9431Z" fill="white"/>
<path d="M66.4324 131.467C59.4877 127.597 54.0534 122.054 50.1296 114.838C46.2057 107.623 44.2356 99.1772 44.2356 89.5181C44.2356 79.8591 46.2221 71.5939 50.2117 64.3619C54.2012 57.1463 59.6847 51.6362 66.6787 47.8152C73.6726 44.0107 81.5039 42.1084 90.1561 42.1084C98.8082 42.1084 106.607 44.0107 113.551 47.8152C120.496 51.6198 125.93 57.1135 129.854 64.2635C133.778 71.4135 135.748 79.8427 135.748 89.5017C135.748 99.1608 133.762 107.606 129.772 114.822C125.783 122.037 120.299 127.58 113.305 131.451C106.311 135.321 98.4799 137.256 89.8277 137.256C81.1756 137.256 73.3771 135.321 66.4324 131.451V131.467ZM108.692 125.924C114.553 122.907 119.248 118.331 122.778 112.198C126.308 106.065 128.065 98.5048 128.065 89.5181C128.065 80.5314 126.292 73.1518 122.778 67.0022C119.248 60.8689 114.586 56.2936 108.774 53.2761C102.962 50.2587 96.7068 48.75 89.9919 48.75C83.277 48.75 77.0383 50.2587 71.2921 53.2761C65.5459 56.2936 60.8996 60.8689 57.3862 67.0022C53.8564 73.1354 52.0997 80.6462 52.0997 89.5181C52.0997 98.39 53.84 106.065 57.3041 112.198C60.7683 118.331 65.3817 122.907 71.1279 125.924C76.8741 128.942 83.0964 130.45 89.8277 130.45C96.559 130.45 102.831 128.942 108.692 125.924Z" fill="white"/>
<path d="M148.176 38.681L115.915 38.6154C112.024 32.9741 113.239 23.9054 102.929 23.9054C95.8366 23.9054 83.7203 23.9054 76.5785 23.9054C67.007 23.9054 67.6801 31.9081 64.0682 38.6154L51.4265 38.681C51.4922 37.5986 51.4758 35.0732 50.1952 35.0732C46.7803 35.0732 40.3445 34.9748 37.7834 34.9748C35.6162 34.9748 35.7311 36.8935 35.7311 38.6974C24.2387 38.6974 21.6283 40.5833 21.4641 47.4709H26.5372C26.8163 44.7978 28.77 43.7975 31.3804 43.7975L65.7756 43.5515C71.801 43.5515 69.9458 29.2023 74.9696 29.2023C85.3292 29.2023 93.9649 28.9727 103.422 28.9727C110.842 28.9727 107.805 43.5351 114.241 43.5351L148.636 43.7811C149.999 43.7319 153.052 44.5026 153.463 47.4545H158.569C158.273 41.8132 156.385 38.681 148.209 38.681H148.176Z" fill="#FFB417"/>
<path d="M153.447 130.844V135.206C153.447 138.486 148.948 140.585 146.797 140.044H32.7103C30.9536 140.208 26.9805 138.961 26.9805 135.665V130.844H21.9238C21.9238 131.27 21.9238 134.747 21.9238 134.747C21.9238 142.864 26.9805 145.095 33.6297 145.095H146.338C152.987 144.799 158.52 142.553 158.52 133.845C158.52 132.845 158.52 131.844 158.52 130.844H153.447Z" fill="#FFB417"/>
<path d="M66.301 69.4784C71.7189 62.0333 80.092 57.4415 89.0396 56.9987L74.2965 84.1064L66.3174 69.4784H66.301Z" fill="#FFB417"/>
<path d="M106.163 94.1755C106.984 95.6514 107.821 97.1273 108.642 98.6032C110.399 101.703 112.205 104.917 113.847 108.131C113.847 108.131 114.142 108.656 114.191 108.771C113.814 109.279 112.894 110.427 112.468 110.935C107.214 117.052 99.4318 120.857 91.4036 121.267L106.147 94.1755H106.163Z" fill="#FFB417"/>
<path d="M102.256 76.9564H118.132C121.563 85.3528 121.12 95.9466 116.999 104.146L102.256 76.9564Z" fill="#FFB417"/>
<path d="M62.3278 101.342C58.9622 93.0767 59.307 82.9257 63.2965 74.5786C63.3621 74.4474 63.4114 74.3326 63.4771 74.2014L78.2038 101.342H62.3278Z" fill="#FFB417"/>
<path d="M86.3306 72.0695L94.4081 57.3267C103.224 58.6223 111.302 64.2307 115.768 72.0695H86.3306Z" fill="#FFB417"/>
<path d="M86.0186 120.988C77.465 119.676 69.4367 114.264 64.8561 106.639C64.774 106.508 64.692 106.36 64.6099 106.229H94.1126L86.0186 120.988Z" fill="#FFB417"/>
</svg>
