<svg width="179" height="179" viewBox="0 0 179 179" fill="none" xmlns="http://www.w3.org/2000/svg">
<path d="M94.9524 89.5298C94.5447 90.2489 93.9396 90.811 93.124 91.2424C92.3085 91.6739 91.3088 91.883 90.1381 91.883H88.1518V96.7463H84.1267V82.3525H90.1381C91.2956 82.3525 92.2953 82.5617 93.1109 82.967C93.9264 83.3723 94.5447 83.9344 94.9524 84.6665C95.3602 85.3856 95.5707 86.2223 95.5707 87.1635C95.5707 88.0395 95.3734 88.8239 94.9656 89.5429L94.9524 89.5298ZM91.4535 87.1505C91.4535 86.1046 90.8879 85.5817 89.7435 85.5817H88.1387V88.7062H89.7435C90.8747 88.7062 91.4535 88.1833 91.4535 87.1505Z" fill="white"/>
<path d="M70.6174 123.442C65.0533 120.357 60.6993 115.938 57.5555 110.186C54.4117 104.433 52.8333 97.7007 52.8333 90.0005C52.8333 82.3002 54.4249 75.7112 57.6213 69.9459C60.8177 64.1936 65.2112 59.8009 70.8148 56.7548C76.4184 53.7218 82.6928 52.2053 89.625 52.2053C96.5571 52.2053 102.805 53.7218 108.369 56.7548C113.934 59.7878 118.288 64.1674 121.431 69.8674C124.575 75.5674 126.154 82.2872 126.154 89.9874C126.154 97.6876 124.562 104.42 121.366 110.173C118.169 115.925 113.776 120.344 108.172 123.429C102.568 126.514 96.294 128.057 89.3619 128.057C82.4297 128.057 76.1816 126.514 70.6174 123.429V123.442ZM104.476 119.023C109.172 116.618 112.934 112.97 115.762 108.081C118.59 103.192 119.998 97.1647 119.998 90.0005C119.998 82.8362 118.577 76.9532 115.762 72.0507C112.934 67.1612 109.198 63.5138 104.542 61.1083C99.8851 58.7028 94.8734 57.5 89.4934 57.5C84.1134 57.5 79.1149 58.7028 74.511 61.1083C69.9071 63.5138 66.1846 67.1612 63.3696 72.0507C60.5415 76.9401 59.134 82.9278 59.134 90.0005C59.134 97.0732 60.5283 103.192 63.3038 108.081C66.0793 112.97 69.7756 116.618 74.3795 119.023C78.9834 121.429 83.9687 122.632 89.3619 122.632C94.755 122.632 99.7798 121.429 104.476 119.023Z" fill="white"/>
<path d="M136.111 49.4729L110.264 49.4206C107.146 44.9234 108.119 37.6938 99.8587 37.6938C94.1762 37.6938 84.4686 37.6938 78.7466 37.6938C71.0778 37.6938 71.6171 44.0736 68.7232 49.4206L58.5947 49.4729C58.6473 48.6101 58.6341 46.5968 57.6081 46.5968C54.8721 46.5968 49.7157 46.5183 47.6637 46.5183C45.9274 46.5183 46.0194 48.0479 46.0194 49.486C36.8116 49.486 34.7202 50.9894 34.5886 56.4803H38.6532C38.8768 54.3493 40.4421 53.5518 42.5336 53.5518L70.0912 53.3557C74.9188 53.3557 73.4324 41.9165 77.4575 41.9165C85.7576 41.9165 92.6766 41.7335 100.253 41.7335C106.199 41.7335 103.765 53.3427 108.922 53.3427L136.479 53.5388C137.571 53.4995 140.018 54.114 140.347 56.4672H144.438C144.201 51.97 142.688 49.4729 136.137 49.4729H136.111Z" fill="#FFB417"/>
<path d="M140.334 122.945V126.423C140.334 129.038 136.729 130.711 135.006 130.28H43.5992C42.1917 130.41 39.0085 129.417 39.0085 126.789V122.945H34.957C34.957 123.285 34.957 126.057 34.957 126.057C34.957 132.528 39.0085 134.306 44.3358 134.306H134.638C139.965 134.071 144.398 132.28 144.398 125.338C144.398 124.54 144.398 123.743 144.398 122.945H140.334Z" fill="#FFB417"/>
<path d="M70.5122 74.0248C74.853 68.0894 81.5616 64.4289 88.7305 64.0759L76.9182 85.6862L70.5254 74.0248H70.5122Z" fill="#FFB417"/>
<path d="M102.45 93.7133C103.108 94.8899 103.779 96.0665 104.436 97.2431C105.844 99.714 107.291 102.276 108.606 104.839C108.606 104.839 108.843 105.257 108.882 105.349C108.58 105.754 107.843 106.669 107.501 107.074C103.292 111.951 97.0571 114.984 90.6248 115.311L102.437 93.7133H102.45Z" fill="#FFB417"/>
<path d="M99.3193 79.9862H112.039C114.788 86.6798 114.433 95.1252 111.132 101.662L99.3193 79.9862Z" fill="#FFB417"/>
<path d="M67.3289 99.4264C64.6324 92.8374 64.9086 84.7449 68.105 78.0906C68.1576 77.986 68.1971 77.8945 68.2497 77.7899L80.0488 99.4264H67.3289Z" fill="#FFB417"/>
<path d="M86.5601 76.0904L93.0318 64.3374C100.096 65.3702 106.567 69.8413 110.145 76.0904H86.5601Z" fill="#FFB417"/>
<path d="M86.31 115.088C79.4568 114.042 73.0245 109.728 69.3545 103.649C69.2888 103.544 69.223 103.427 69.1572 103.322H92.795L86.31 115.088Z" fill="#FFB417"/>
</svg>
