<svg width="27" height="25" viewBox="0 0 27 25" fill="none" xmlns="http://www.w3.org/2000/svg">
<path d="M25.875 19.7917C25.875 20.3442 25.6379 20.8741 25.216 21.2648C24.794 21.6555 24.2217 21.875 23.625 21.875H3.375C2.77826 21.875 2.20597 21.6555 1.78401 21.2648C1.36205 20.8741 1.125 20.3442 1.125 19.7917V8.33333C1.125 7.7808 1.36205 7.25089 1.78401 6.86019C2.20597 6.46949 2.77826 6.25 3.375 6.25H7.875L10.125 3.125H16.875L19.125 6.25H23.625C24.2217 6.25 24.794 6.46949 25.216 6.86019C25.6379 7.25089 25.875 7.7808 25.875 8.33333V19.7917Z" stroke="#FFB417" stroke-width="2" stroke-linecap="round" stroke-linejoin="round"/>
<path d="M13.5 17.7083C15.9853 17.7083 18 15.8429 18 13.5417C18 11.2405 15.9853 9.375 13.5 9.375C11.0147 9.375 9 11.2405 9 13.5417C9 15.8429 11.0147 17.7083 13.5 17.7083Z" stroke="#FFB417" stroke-width="2" stroke-linecap="round" stroke-linejoin="round"/>
</svg>
