<svg width="45" height="45" viewBox="0 0 45 45" fill="none" xmlns="http://www.w3.org/2000/svg">
<rect width="45" height="45" rx="22.5" fill="white"/>
<path d="M34.875 29.7917C34.875 30.3442 34.6379 30.8741 34.216 31.2648C33.794 31.6555 33.2217 31.875 32.625 31.875H12.375C11.7783 31.875 11.206 31.6555 10.784 31.2648C10.3621 30.8741 10.125 30.3442 10.125 29.7917V18.3333C10.125 17.7808 10.3621 17.2509 10.784 16.8602C11.206 16.4695 11.7783 16.25 12.375 16.25H16.875L19.125 13.125H25.875L28.125 16.25H32.625C33.2217 16.25 33.794 16.4695 34.216 16.8602C34.6379 17.2509 34.875 17.7808 34.875 18.3333V29.7917Z" stroke="#FFB417" stroke-width="2" stroke-linecap="round" stroke-linejoin="round"/>
<path d="M22.5 27.7083C24.9853 27.7083 27 25.8429 27 23.5417C27 21.2405 24.9853 19.375 22.5 19.375C20.0147 19.375 18 21.2405 18 23.5417C18 25.8429 20.0147 27.7083 22.5 27.7083Z" stroke="#FFB417" stroke-width="2" stroke-linecap="round" stroke-linejoin="round"/>
</svg>
