<?xml version="1.0" encoding="UTF-8"?>
<svg id="Layer_1" data-name="Layer 1" xmlns="http://www.w3.org/2000/svg" viewBox="0 0 651.89 113.62">
  <defs>
    <style>
      .cls-1 {
        fill: #fff;
      }

      .cls-2 {
        fill: #ffb417;
      }
    </style>
  </defs>
  <g>
    <path class="cls-1" d="M42.12,43.41c-4.17,3.71-10.36,5.56-18.57,5.56H7.36v33.25H2.5V6.44h21.05c8.35,0,14.57,1.93,18.68,5.78,4.1,3.85,6.15,9.05,6.15,15.6s-2.09,11.89-6.26,15.6ZM43.52,27.81c0-5.54-1.58-9.77-4.75-12.68-3.17-2.92-8.24-4.37-15.22-4.37H7.36v33.9h16.19c13.31,0,19.97-5.61,19.97-16.84Z"/>
    <path class="cls-1" d="M106.03,28.84c4.39,4.28,6.59,10.63,6.59,19.05v34.33h-4.75v-34.01c0-6.98-1.76-12.32-5.29-16.03-3.53-3.71-8.31-5.56-14.36-5.56s-11.39,2.02-15.17,6.05c-3.78,4.03-5.67,10.01-5.67,17.92v31.63h-4.86V2.33h4.86v33.68c1.66-4.39,4.43-7.75,8.31-10.09,3.89-2.34,8.35-3.51,13.39-3.51,6.91,0,12.56,2.14,16.95,6.42Z"/>
    <path class="cls-1" d="M141.87,79.42c-4.39-2.45-7.83-5.96-10.31-10.53-2.48-4.57-3.72-9.91-3.72-16.03s1.26-11.35,3.78-15.92c2.52-4.57,5.99-8.06,10.42-10.47,4.43-2.41,9.37-3.62,14.84-3.62s10.4,1.21,14.79,3.62c4.39,2.41,7.83,5.88,10.31,10.42,2.48,4.53,3.72,9.86,3.72,15.98s-1.26,11.46-3.78,16.03c-2.52,4.57-5.99,8.08-10.42,10.53-4.43,2.45-9.38,3.67-14.85,3.67s-10.4-1.22-14.79-3.67ZM168.59,75.91c3.71-1.91,6.67-4.8,8.91-8.69,2.23-3.89,3.35-8.67,3.35-14.36s-1.12-10.36-3.35-14.25c-2.23-3.89-5.18-6.78-8.85-8.69-3.67-1.91-7.63-2.86-11.88-2.86s-8.19.96-11.82,2.86c-3.64,1.91-6.57,4.8-8.8,8.69-2.23,3.89-3.35,8.64-3.35,14.25s1.1,10.47,3.29,14.36c2.2,3.89,5.11,6.78,8.75,8.69,3.63,1.91,7.57,2.86,11.82,2.86s8.22-.95,11.93-2.86Z"/>
    <path class="cls-1" d="M208.81,27.81v38.76c0,4.32.79,7.29,2.38,8.91,1.58,1.62,4.39,2.43,8.42,2.43h6.59v4.32h-7.34c-5.11,0-8.87-1.2-11.28-3.62-2.41-2.41-3.62-6.42-3.62-12.04V27.81h-8.85v-4.21h8.85v-14.9h4.86v14.9h17.38v4.21h-17.38Z"/>
    <path class="cls-1" d="M260.84,79.42c-4.39-2.45-7.83-5.96-10.31-10.53-2.48-4.57-3.72-9.91-3.72-16.03s1.26-11.35,3.78-15.92c2.52-4.57,5.99-8.06,10.42-10.47,4.43-2.41,9.37-3.62,14.84-3.62s10.4,1.21,14.79,3.62c4.39,2.41,7.83,5.88,10.31,10.42s3.72,9.86,3.72,15.98-1.26,11.46-3.78,16.03c-2.52,4.57-5.99,8.08-10.42,10.53-4.43,2.45-9.38,3.67-14.85,3.67s-10.4-1.22-14.79-3.67ZM287.57,75.91c3.71-1.91,6.67-4.8,8.91-8.69,2.23-3.89,3.35-8.67,3.35-14.36s-1.12-10.36-3.35-14.25c-2.23-3.89-5.18-6.78-8.85-8.69-3.67-1.91-7.63-2.86-11.88-2.86s-8.19.96-11.82,2.86c-3.64,1.91-6.57,4.8-8.8,8.69-2.23,3.89-3.35,8.64-3.35,14.25s1.1,10.47,3.29,14.36c2.2,3.89,5.11,6.78,8.75,8.69,3.63,1.91,7.57,2.86,11.82,2.86s8.22-.95,11.93-2.86Z"/>
    <path class="cls-1" d="M365.89,27.33c4.32,2.99,7.34,6.82,9.07,11.5v-15.22h4.86v60.46c0,5.4-1.19,10.13-3.56,14.2-2.38,4.07-5.58,7.2-9.61,9.39-4.03,2.19-8.53,3.29-13.5,3.29-7.34,0-13.42-1.76-18.25-5.29-4.82-3.53-7.99-8.28-9.5-14.25h4.86c1.44,4.68,4.14,8.4,8.1,11.17,3.96,2.77,8.89,4.16,14.79,4.16,4.1,0,7.81-.92,11.12-2.75,3.31-1.84,5.92-4.46,7.83-7.88,1.91-3.42,2.86-7.43,2.86-12.04v-17.17c-1.73,4.68-4.77,8.55-9.12,11.61-4.36,3.06-9.59,4.59-15.71,4.59-5.47,0-10.35-1.24-14.63-3.73-4.28-2.48-7.63-6.01-10.04-10.58-2.41-4.57-3.62-9.88-3.62-15.92s1.2-11.34,3.62-15.87c2.41-4.53,5.76-8.02,10.04-10.47,4.28-2.45,9.16-3.67,14.63-3.67,6.19,0,11.44,1.49,15.76,4.48ZM371.77,39.31c-2.12-3.92-5.02-6.94-8.69-9.07-3.67-2.12-7.77-3.19-12.31-3.19s-8.93,1.03-12.52,3.08c-3.6,2.05-6.41,5.02-8.42,8.91-2.02,3.89-3.02,8.49-3.02,13.82s1.01,9.93,3.02,13.82c2.01,3.89,4.84,6.87,8.47,8.96,3.63,2.09,7.79,3.13,12.47,3.13s8.65-1.06,12.36-3.18c3.71-2.12,6.6-5.14,8.69-9.07,2.09-3.92,3.13-8.47,3.13-13.66s-1.06-9.63-3.18-13.55Z"/>
    <path class="cls-1" d="M412.74,25.82c3.67-2.27,8.35-3.4,14.04-3.4v5.07h-1.62c-5.76,0-10.54,1.64-14.36,4.91-3.82,3.28-5.72,8.62-5.72,16.03v33.79h-4.86V23.6h4.86v12.09c1.44-4.32,4-7.61,7.67-9.88Z"/>
    <path class="cls-1" d="M441.3,36.99c2.41-4.53,5.76-8.02,10.04-10.47,4.28-2.45,9.16-3.67,14.63-3.67,6.19,0,11.44,1.51,15.76,4.53,4.32,3.02,7.34,6.87,9.07,11.55v-15.33h4.86v58.62h-4.86v-15.44c-1.73,4.75-4.77,8.66-9.12,11.71-4.36,3.06-9.59,4.59-15.71,4.59-5.47,0-10.35-1.24-14.63-3.73-4.28-2.48-7.63-6.01-10.04-10.58-2.41-4.57-3.62-9.88-3.62-15.92s1.2-11.34,3.62-15.87ZM487.61,39.31c-2.12-3.92-5.02-6.94-8.69-9.07-3.67-2.12-7.77-3.19-12.31-3.19s-8.93,1.03-12.52,3.08c-3.6,2.05-6.41,5.02-8.42,8.91-2.02,3.89-3.02,8.49-3.02,13.82s1.01,9.93,3.02,13.82c2.01,3.89,4.84,6.87,8.47,8.96,3.63,2.09,7.79,3.13,12.47,3.13s8.65-1.06,12.36-3.18c3.71-2.12,6.6-5.14,8.69-9.07,2.09-3.92,3.13-8.47,3.13-13.66s-1.06-9.63-3.18-13.55Z"/>
    <path class="cls-1" d="M529.93,27.38c4.35-3.02,9.63-4.53,15.82-4.53,5.47,0,10.35,1.22,14.63,3.67,4.28,2.45,7.63,5.94,10.04,10.47,2.41,4.53,3.62,9.82,3.62,15.87s-1.21,11.35-3.62,15.92c-2.41,4.57-5.76,8.1-10.04,10.58-4.28,2.48-9.16,3.73-14.63,3.73-6.12,0-11.35-1.53-15.71-4.59-4.35-3.06-7.39-6.93-9.12-11.61v42.97h-4.86V23.6h4.86v15.44c1.65-4.75,4.66-8.64,9.02-11.66ZM566.04,39.04c-2.02-3.89-4.84-6.86-8.47-8.91-3.64-2.05-7.83-3.08-12.58-3.08s-8.64,1.06-12.31,3.19c-3.67,2.12-6.55,5.15-8.64,9.07-2.09,3.92-3.13,8.44-3.13,13.55s1.04,9.74,3.13,13.66c2.09,3.92,4.97,6.95,8.64,9.07,3.67,2.12,7.77,3.18,12.31,3.18s8.94-1.04,12.58-3.13c3.63-2.09,6.46-5.07,8.47-8.96,2.01-3.89,3.02-8.49,3.02-13.82s-1.01-9.93-3.02-13.82Z"/>
    <path class="cls-1" d="M605.29,27.38c4.35-3.02,9.63-4.53,15.82-4.53,5.47,0,10.35,1.22,14.63,3.67,4.28,2.45,7.63,5.94,10.04,10.47,2.41,4.53,3.62,9.82,3.62,15.87s-1.21,11.35-3.62,15.92c-2.41,4.57-5.76,8.1-10.04,10.58-4.28,2.48-9.16,3.73-14.63,3.73-6.12,0-11.35-1.53-15.71-4.59-4.35-3.06-7.39-6.93-9.12-11.61v42.97h-4.86V23.6h4.86v15.44c1.65-4.75,4.66-8.64,9.02-11.66ZM641.4,39.04c-2.02-3.89-4.84-6.86-8.47-8.91-3.64-2.05-7.83-3.08-12.58-3.08s-8.64,1.06-12.31,3.19c-3.67,2.12-6.55,5.15-8.64,9.07-2.09,3.92-3.13,8.44-3.13,13.55s1.04,9.74,3.13,13.66c2.09,3.92,4.97,6.95,8.64,9.07,3.67,2.12,7.77,3.18,12.31,3.18s8.94-1.04,12.58-3.13c3.63-2.09,6.46-5.07,8.47-8.96,2.01-3.89,3.02-8.49,3.02-13.82s-1.01-9.93-3.02-13.82Z"/>
  </g>
  <g>
    <path class="cls-2" d="M312.72,20.83s-20.4-.05-20.4-.04c-2.46-3.58-1.69-9.31-8.21-9.31-4.49,0-12.15,0-16.67,0-6.05,0-5.63,5.07-7.91,9.32l-7.99.04c.04-.69.03-2.29-.78-2.29-2.16,0-6.23-.06-7.85-.06-1.37,0-1.3,1.21-1.3,2.35-7.27,0-8.92,1.2-9.02,5.55h3.21c.18-1.69,1.41-2.32,3.06-2.32l21.75-.16c3.81,0,2.64-9.08,5.81-9.08,6.55,0,12.02-.14,18-.14,4.7,0,2.77,9.22,6.84,9.22l21.75.15c.86-.03,2.79.46,3.05,2.32h3.23c-.19-3.57-1.38-5.55-6.55-5.55Z"/>
    <path class="cls-2" d="M316.06,79.18v2.76c0,2.08-2.84,3.41-4.21,3.07h-72.15c-1.11.11-3.63-.69-3.63-2.77v-3.06h-3.2c0,.27,0,2.48,0,2.48,0,5.14,3.2,6.55,7.41,6.55h71.28c4.2-.19,7.71-1.61,7.71-7.13,0-.63,0-1.27,0-1.9h-3.21Z"/>
    <g>
      <path class="cls-2" d="M260.94,40.34c3.43-4.72,8.73-7.62,14.38-7.9l-9.33,17.16-5.05-9.26Z"/>
      <path class="cls-2" d="M286.14,55.97c.52.94,1.04,1.87,1.57,2.81,1.11,1.97,2.26,4,3.29,6.03,0,0,.18.34.22.41-.24.32-.82,1.05-1.09,1.37-3.32,3.88-8.24,6.28-13.32,6.55l9.33-17.16Z"/>
      <path class="cls-2" d="M283.67,45.06h10.04c2.17,5.31,1.89,12.03-.72,17.21l-9.32-17.21Z"/>
      <path class="cls-2" d="M258.42,60.51c-2.13-5.24-1.91-11.66.61-16.94.04-.08.08-.16.12-.24l9.31,17.18h-10.04Z"/>
      <path class="cls-2" d="M273.61,41.97l5.11-9.33c5.58.82,10.68,4.37,13.51,9.33h-18.62Z"/>
      <path class="cls-2" d="M273.4,72.94c-5.41-.83-10.49-4.26-13.38-9.08-.05-.08-.1-.17-.16-.26h18.66l-5.12,9.34Z"/>
    </g>
  </g>
</svg>